<svg xmlns="http://www.w3.org/2000/svg" viewBox="0 0 15.205 15.205"><defs><style>.a{fill:#07a7e3;}</style></defs><g transform="translate(-1154.795 -24)"><path class="a" d="M14.764,10.234a.8.8,0,0,0-1.131,0l-1.275,1.275a5.991,5.991,0,0,1-2.394-1.275A5.991,5.991,0,0,1,8.689,7.841L9.964,6.566a.8.8,0,0,0,0-1.131l-3.2-3.2a.8.8,0,0,0-1.131,0l-2.4,2.4A.8.8,0,0,0,3,5.154a12.076,12.076,0,0,0,3.433,8.612A12.128,12.128,0,0,0,14.775,17.2c.175,0,.27-.006.27-.006a.8.8,0,0,0,.519-.233l2.4-2.4a.8.8,0,0,0,0-1.131Zm-.1,5.37a10.483,10.483,0,0,1-7.1-2.97A10.643,10.643,0,0,1,4.6,5.534l1.6-1.6L8.267,6,7.233,7.034a.8.8,0,0,0-.218.73,8.126,8.126,0,0,0,1.817,3.6,8.126,8.126,0,0,0,3.6,1.817.793.793,0,0,0,.73-.217L14.2,11.931,16.267,14Z" transform="translate(1151.801 22)"/></g></svg>